<?xml version="1.0" standalone="no"?>
<!DOCTYPE svg PUBLIC "-//W3C//DTD SVG 20010904//EN"
 "http://www.w3.org/TR/2001/REC-SVG-20010904/DTD/svg10.dtd">
<svg version="1.0" xmlns="http://www.w3.org/2000/svg"
 width="270.000000pt" height="250.000000pt" viewBox="0 0 270.000000 250.000000"
 preserveAspectRatio="xMidYMid meet">

<g transform="translate(0.000000,250.000000) scale(0.100000,-0.100000)"
fill="#ffffff" stroke="none">
<path d="M1159 2028 c-30 -10 -7 35 -320 -619 -115 -241 -209 -448 -209 -461
0 -34 33 -61 125 -101 120 -53 117 -56 234 190 53 111 101 206 106 211 6 6
106 -37 265 -114 140 -68 259 -125 265 -127 10 -4 -8 -47 -128 -300 -82 -174
-82 -175 38 -235 92 -45 133 -52 158 -24 22 25 507 1042 507 1064 0 37 -20 54
-110 98 -133 63 -123 70 -250 -187 -57 -117 -108 -213 -114 -213 -22 0 -525
246 -526 257 0 6 43 100 95 209 52 108 95 209 95 225 0 37 -21 56 -100 91 -97
44 -103 46 -131 36z"/>
<path d="M890 1987 c-18 -8 -44 -51 -92 -147 -37 -74 -69 -139 -71 -145 -2 -6
-19 -3 -41 8 -38 18 -73 22 -101 11 -22 -9 -65 -96 -65 -132 0 -28 35 -72 56
-72 6 0 19 -6 29 -14 19 -13 17 -20 -50 -160 -59 -126 -67 -151 -59 -174 10
-30 90 -80 104 -66 11 11 410 843 410 855 0 9 -41 32 -75 43 -11 3 -31 0 -45
-7z"/>
<path d="M2023 946 c-112 -233 -203 -429 -203 -435 0 -12 30 -30 69 -41 53
-15 68 2 143 155 39 80 75 145 82 145 6 -1 22 -7 36 -15 60 -35 107 -13 143
68 31 69 20 100 -50 135 l-42 22 71 146 c60 124 70 150 62 172 -10 28 -67 72
-93 72 -11 0 -76 -126 -218 -424z"/>
</g>
</svg>
